<?xml version="1.0" encoding="utf-8"?>
<!-- Generator: Adobe Illustrator 19.1.0, SVG Export Plug-In . SVG Version: 6.00 Build 0)  -->
<svg version="1.1" id="Layer_1" xmlns="http://www.w3.org/2000/svg" xmlns:xlink="http://www.w3.org/1999/xlink" x="0px" y="0px"
	 viewBox="0 0 49 53.9" style="enable-background:new 0 0 49 53.9;" xml:space="preserve">
<style type="text/css">
	.st0{fill:url(#SVGID_1_);}
	.st1{fill:#FFFFFF;}
</style>
<g>
	<linearGradient id="SVGID_1_" gradientUnits="userSpaceOnUse" x1="32.0679" y1="47.6803" x2="16.9716" y2="6.2035">
		<stop  offset="0" style="stop-color:#F58866"/>
		<stop  offset="1" style="stop-color:#EB6461"/>
	</linearGradient>
	<path class="st0" d="M7.4,12.7L20.7,5c2.3-1.4,5.2-1.4,7.6,0l13.4,7.7c2.3,1.4,3.8,3.8,3.8,6.6v15.4c0,2.7-1.4,5.2-3.8,6.6
		l-13.4,7.7c-2.3,1.4-5.2,1.4-7.6,0L7.4,41.2c-2.3-1.4-3.8-3.8-3.8-6.6V19.2C3.6,16.5,5,14,7.4,12.7z"/>
</g>
<g>
	<path class="st1" d="M37.1,19.6c-1-1.7-3.9-1.8-8.3-0.4c-2.2,0.8-4.6,1.9-6.9,3.2c-1.7,1-3.3,2.1-4.7,3.2c0-0.2,0.1-0.4,0.1-0.6
		c0.9-3.3,3.8-5.6,7.2-5.6c0,0,0.1,0,0.1,0c0.5,0,0.9-0.4,0.9-0.9c0-0.5-0.4-0.9-0.9-0.9c-4.2-0.1-7.9,2.8-9,6.9
		c-0.2,0.9-0.3,1.7-0.3,2.6c-3.2,2.9-4.4,5.4-3.4,7.1c0.5,0.9,1.6,1.4,3.2,1.4c1.3,0,2.8-0.3,4.6-0.9c0.7,0.4,1.5,0.8,2.4,1
		c0.8,0.2,1.5,0.3,2.3,0.3c1.6,0,3.2-0.4,4.6-1.3c2.1-1.2,3.6-3.2,4.2-5.6c0.2-0.9,0.3-1.7,0.3-2.6C36.8,23.7,38,21.2,37.1,19.6z
		 M31.7,28.8c-0.5,1.9-1.7,3.5-3.4,4.5c-1.7,1-3.7,1.3-5.6,0.8c-1.7-0.4-3.1-1.4-4.1-2.8c1-1,2.7-2.5,4.9-3.6
		c0.4-0.2,0.6-0.7,0.4-1.2c-0.2-0.4-0.7-0.6-1.2-0.4c-2.8,1.5-4.9,3.3-5.9,4.5c-0.2,0.3-0.3,0.7-0.1,1c0.4,0.7,0.9,1.2,1.4,1.8
		c-2.9,0.8-4.4,0.4-4.6-0.1c-0.3-0.6,0.3-2.4,3.4-5.2c1.7-1.5,3.7-3,5.9-4.3c2.1-1.2,4.2-2.2,6.2-2.9C31.3,22.8,32.5,25.9,31.7,28.8
		z M30.9,20.4c2.9-0.8,4.4-0.4,4.6,0.1c0.3,0.5-0.1,1.9-2.2,4.1C32.9,23,32.1,21.5,30.9,20.4z"/>
</g>
</svg>
